<?xml version="1.0" encoding="UTF-8"?>
<!-- Generator: visioncortex VTracer 0.6.12 -->
<svg version="1.1" xmlns="http://www.w3.org/2000/svg" width="185" height="185">
<path d="M0 0 C21.402273 17.02423564 33.8345887 39.54158006 37.2265625 66.6328125 C39.54928626 88.75205491 32.45212717 111.89790769 19.2265625 129.6328125 C16.35867809 133.10227845 13.33709729 136.38088976 10.2265625 139.6328125 C9.91976562 139.97699219 9.91976562 139.97699219 8.3671875 141.71875 C-5.93974634 157.18735795 -28.02865031 165.98095504 -48.81640625 167.015625 C-75.7385173 167.77304029 -99.30464848 160.40814776 -119.2043457 141.71948242 C-137.57183781 123.8055695 -147.47216643 100.27348663 -148.2734375 74.6328125 C-147.48715949 49.47191622 -138.12420635 27.77225267 -120.7734375 9.6328125 C-120.15984375 8.94445312 -119.54625 8.25609375 -118.9140625 7.546875 C-88.73864528 -25.07868294 -34.47337127 -25.23484994 0 0 Z " fill="#79B55F" transform="translate(147.7734375,17.3671875)"/>
<path d="M0 0 C2.40654323 0.02909465 4.81088244 0.02051126 7.2175293 0.00756836 C21.18331849 0.024893 34.98334903 1.54583838 48.09057617 6.65405273 C48.87279541 6.95085937 49.65501465 7.24766602 50.4609375 7.5534668 C57.47389673 10.32043586 64.49633246 13.6400678 70.34057617 18.46655273 C70.34057617 22.49687062 69.01551495 23.25560188 66.21557617 26.09155273 C48.06787511 43.62581038 24.45669569 51.16250347 -0.41821289 50.93701172 C-25.10268635 50.23211699 -46.88480103 40.14052281 -63.92895508 22.33764648 C-64.50000977 21.72018555 -65.07106445 21.10272461 -65.65942383 20.46655273 C-58.81373912 15.23614195 -51.56543326 11.22813898 -43.65942383 7.84155273 C-43.03914307 7.56472656 -42.4188623 7.28790039 -41.77978516 7.00268555 C-28.40215143 1.4702737 -14.35293202 -0.18837402 0 0 Z " fill="#2C7844" transform="translate(89.659423828125,133.533447265625)"/>
<path d="M0 0 C2.73828125 1.890625 2.73828125 1.890625 5.3125 4.25 C16.97698693 14.35385903 27.51702205 15.84876135 42.46289062 15.21337891 C51.92161484 14.41787035 58.35127321 9.42691698 64.94140625 2.98828125 C67 1 67 1 70 -1 C73.36187193 -0.81989972 75.99918142 -0.58112046 78.9375 1.125 C80.77039343 4.35951782 80.60004683 6.33971434 80 10 C78.01363724 13.03520917 75.60163844 15.48576839 73 18 C72.73574219 18.26876953 72.73574219 18.26876953 71.3984375 19.62890625 C60.16423155 30.22669167 44.73410866 33.68096366 29.71484375 33.35546875 C14.21558905 31.87236446 0.17105074 23.88026089 -9.7421875 11.984375 C-11.74522621 8.82430151 -11.76169378 6.60073422 -11 3 C-7.9603657 -1.86341488 -5.22933334 -1.22128804 0 0 Z " fill="#545955" transform="translate(58,89)"/>
<path d="M0 0 C3.86090516 2.0695106 6.3479303 4.96243054 8 9 C8.74722522 13.28936017 8.9617225 17.31319334 6.76171875 21.171875 C3.81035433 24.7164417 1.69339219 26.64088104 -3.05078125 27.2734375 C-7.18440861 27.45905807 -10.09938967 27.43530097 -13.4375 24.8125 C-16.91905631 20.99127966 -17.81899238 18.65923651 -18.375 13.5625 C-17.81350071 8.22825672 -15.36008987 5.476669 -11.8125 1.625 C-7.83896616 -0.67081955 -4.48184608 -0.92319717 0 0 Z " fill="#287C45" transform="translate(64,42)"/>
<path d="M0 0 C3.58598061 2.21262634 5.39653485 4.15446021 7 8 C7.74722522 12.28936017 7.9617225 16.31319334 5.76171875 20.171875 C2.81035433 23.7164417 0.69339219 25.64088104 -4.05078125 26.2734375 C-8.22372499 26.46082357 -11.09495374 26.43391645 -14.4375 23.75 C-18.450648 19.44320702 -19.56837902 16.1406405 -19.453125 10.3203125 C-18.65726109 6.24494043 -16.13460257 3.59539341 -13 1 C-8.6492846 -1.70926902 -4.8389053 -1.20108542 0 0 Z " fill="#2A7B43" transform="translate(131,43)"/>
<path d="M0 0 C3.4375 0.875 3.4375 0.875 6.4375 2.875 C6.1075 3.865 5.7775 4.855 5.4375 5.875 C4.4475 5.215 3.4575 4.555 2.4375 3.875 C2.4375 3.215 2.4375 2.555 2.4375 1.875 C-4.4375 3.75 -4.4375 3.75 -5.5625 4.875 C-5.64229507 8.78495844 -5.35465967 10.86028118 -2.921875 13.9765625 C2.52419722 19.5265674 7.86707854 23.71202244 15.4375 25.875 C15.4375 26.535 15.4375 27.195 15.4375 27.875 C29.85866974 30.74807637 44.00290288 32.38188694 58.4375 28.875 C58.4375 27.885 58.4375 26.895 58.4375 25.875 C58.8809375 25.8440625 58.8809375 25.8440625 61.125 25.6875 C65.19049225 24.69030379 66.60543205 22.86015271 69.4375 19.875 C70.4275 19.875 71.4175 19.875 72.4375 19.875 C72.705625 19.276875 72.97375 18.67875 73.25 18.0625 C74.43667406 15.87652146 75.53349113 14.46167406 77.4375 12.875 C78.0975 12.875 78.7575 12.875 79.4375 12.875 C79.4375 11.555 79.4375 10.235 79.4375 8.875 C80.0975 8.875 80.7575 8.875 81.4375 8.875 C81.1075 7.885 81.1075 7.885 79.4375 2.875 C76.7975 2.875 74.1575 2.875 71.4375 2.875 C72.0975 1.885 72.7575 0.895 73.4375 -0.125 C79.73912703 0.46949312 79.73912703 0.46949312 82.375 2 C84.20789343 5.23451782 84.03754683 7.21471434 83.4375 10.875 C81.45113724 13.91020917 79.03913844 16.36076839 76.4375 18.875 C76.17324219 19.14376953 76.17324219 19.14376953 74.8359375 20.50390625 C63.60173155 31.10169167 48.17160866 34.55596366 33.15234375 34.23046875 C17.65308905 32.74736446 3.60855074 24.75526089 -6.3046875 12.859375 C-8.30772621 9.69930151 -8.32419378 7.47573422 -7.5625 3.875 C-5.28656232 0.23349971 -4.32379992 -0.15171228 0 0 Z " fill="#4B6344" transform="translate(54.5625,88.125)"/>
<path d="M0 0 C7.08914729 -0.60077519 7.08914729 -0.60077519 10.9375 1.9375 C13.63783204 5.94708393 14.81991493 9.16089424 14 14 C11.50268849 18.27901913 8.46607632 21.25136528 4.0625 23.5 C3.381875 23.665 2.70125 23.83 2 24 C2 24.66 2 25.32 2 26 C1.505 26.165 1.505 26.165 -1 27 C-1.33 27.66 -1.66 28.32 -2 29 C-4.5625 29.625 -4.5625 29.625 -7 30 C-4.09433105 27.0035289 -1.11209701 24.21175857 2.0625 21.5 C9.75869485 14.74946237 9.75869485 14.74946237 10.5 9.375 C10 6 10 6 8.3125 4.0625 C5.47330553 2.75800525 4.10833076 2.55595275 1 3 C-1.17657682 4.66822197 -3.08424104 6.31312358 -5.0625 8.1875 C-15.89033106 17.71824713 -25.70577101 20.08660347 -39.9921875 19.46875 C-52.25848351 18.55437833 -59.69111071 12.42338186 -68 4 C-64.69747512 4 -62.93840447 4.53079777 -60 6 C-57 9.31034483 -57 9.31034483 -57 12 C-56.45214844 12.1340625 -55.90429688 12.268125 -55.33984375 12.40625 C-51.79506139 13.30576072 -48.27714437 14.30121158 -44.75390625 15.28125 C-38.05576188 17.02941818 -29.77120736 18.97539433 -23.375 15.625 C-22.59125 15.08875 -21.8075 14.5525 -21 14 C-18.03090855 13.16541723 -15.03152917 12.56139429 -12 12 C-12 11.278125 -12 10.55625 -12 9.8125 C-10.63095549 5.96206232 -8.41948371 4.96371256 -5.0078125 2.91796875 C-3 2 -3 2 0 2 C0 1.34 0 0.68 0 0 Z " fill="#81B16D" transform="translate(127,86)"/>
<path d="M0 0 C0 3 0 3 -2.3125 5.375 C-3.199375 6.24125 -4.08625 7.1075 -5 8 C-5.41894531 8.81210938 -5.83789062 9.62421875 -6.26953125 10.4609375 C-8.52599453 13.77177526 -10.72493213 14.66301397 -14.375 16.25 C-15.49648437 16.75015625 -16.61796875 17.2503125 -17.7734375 17.765625 C-20.55049808 18.82803558 -23.07292905 19.53956187 -26 20 C-25.67 19.34 -25.34 18.68 -25 18 C-25.53109375 17.97550781 -25.53109375 17.97550781 -28.21875 17.8515625 C-39.56924463 17.27698986 -48.07559293 16.0189691 -58 10 C-58 9.34 -58 8.68 -58 8 C-58.804375 7.7525 -59.60875 7.505 -60.4375 7.25 C-61.283125 6.8375 -62.12875 6.425 -63 6 C-63.66015625 3.921875 -63.66015625 3.921875 -64 2 C-63.53851563 2.37511719 -63.07703125 2.75023438 -62.6015625 3.13671875 C-49.71524014 13.24713372 -38.06228027 15.35088847 -22 14 C-12.76586718 12.00316748 -6.50924065 6.61004747 0 0 Z " fill="#52644D" transform="translate(125,90)"/>
<path d="M0 0 C0.165 0.495 0.165 0.495 1 3 C1.78246094 2.98839844 2.56492188 2.97679687 3.37109375 2.96484375 C4.38300781 2.95582031 5.39492187 2.94679687 6.4375 2.9375 C7.44683594 2.92589844 8.45617187 2.91429687 9.49609375 2.90234375 C12 3 12 3 13 4 C14.32955625 4.16025901 15.66436608 4.27761003 17 4.375 C21.95803673 4.86045785 26.3542074 6.25370916 31 8 C30.67 8.66 30.34 9.32 30 10 C29.42894531 9.87882813 28.85789062 9.75765625 28.26953125 9.6328125 C25.5174007 9.06400968 22.75985317 8.53010697 20 8 C19.09757568 7.82227051 18.19515137 7.64454102 17.26538086 7.46142578 C8.24360539 5.86983492 -0.59204105 5.69309472 -9.72167969 5.73925781 C-12.2600052 5.75004251 -14.79763245 5.73926869 -17.3359375 5.7265625 C-18.9791682 5.72788333 -20.62239847 5.73044413 -22.265625 5.734375 C-23.00959534 5.73032654 -23.75356567 5.72627808 -24.52008057 5.72210693 C-29.1972321 5.76316565 -33.41676087 6.40270241 -37.94769287 7.57183838 C-40 8 -40 8 -44 8 C-44 7.01 -44 6.02 -44 5 C-39.25 3.875 -39.25 3.875 -37 5 C-36.67 4.01 -36.34 3.02 -36 2 C-34.68 2 -33.36 2 -32 2 C-32 2.66 -32 3.32 -32 4 C-31.55076172 3.91298828 -31.55076172 3.91298828 -29.27734375 3.47265625 C-23.71555385 2.67811484 -18.15180155 3.14891292 -12.5625 3.4375 C-11.44939453 3.48970703 -10.33628906 3.54191406 -9.18945312 3.59570312 C-6.45929677 3.72459463 -3.72958065 3.85952327 -1 4 C-0.67 2.68 -0.34 1.36 0 0 Z " fill="#6CAD62" transform="translate(104,129)"/>
<path d="M0 0 C3.0625 2.5 3.0625 2.5 5 5 C3.68 5 2.36 5 1 5 C1 4.34 1 3.68 1 3 C-2.3 3 -5.6 3 -9 3 C-9 3.66 -9 4.32 -9 5 C-9.66 5 -10.32 5 -11 5 C-11.33 5.66 -11.66 6.32 -12 7 C-12.99 7 -13.98 7 -15 7 C-16.05191756 17.31881033 -16.05191756 17.31881033 -13.6875 21.09765625 C-9.74730152 24.67725621 -6.25440045 25.78553468 -1 26 C-1 26.33 -1 26.66 -1 27 C-5.66935037 27.46693504 -9.6102711 27.85149069 -13.4375 24.8125 C-16.91905631 20.99127966 -17.81899238 18.65923651 -18.375 13.5625 C-17.81350071 8.22825672 -15.36008987 5.476669 -11.8125 1.625 C-7.87444564 -0.6503203 -4.44354894 -0.97227744 0 0 Z " fill="#37833E" transform="translate(64,42)"/>
<path d="M0 0 C0.66 0 1.32 0 2 0 C2 1.98 2 3.96 2 6 C1.34 6 0.68 6 0 6 C0.23976562 6.73605469 0.47953125 7.47210938 0.7265625 8.23046875 C1.02304687 9.20628906 1.31953125 10.18210937 1.625 11.1875 C1.92664063 12.15042969 2.22828125 13.11335938 2.5390625 14.10546875 C3.07998374 17.50227077 2.4005731 18.92072582 1 22 C0.734375 24.31640625 0.734375 24.31640625 0.75 26.5625 C0.74742187 26.93439453 0.74742187 26.93439453 0.734375 28.81640625 C1.02979882 31.24496383 1.79337222 32.88840139 3 35 C2.34 35 1.68 35 1 35 C1 36.65 1 38.3 1 40 C0.67 40 0.34 40 0 40 C-2.85685773 26.53195642 -2.85685773 13.46804358 0 0 Z " fill="#5B7D49" transform="translate(2,72)"/>
<path d="M0 0 C0.56460938 0.30679688 1.12921875 0.61359375 1.7109375 0.9296875 C4.02974807 2.01390951 6.12547013 2.5983432 8.625 3.125 C9.01300781 3.20878906 9.01300781 3.20878906 10.9765625 3.6328125 C13 4 13 4 15 4 C15 4.66 15 5.32 15 6 C15.66 6 16.32 6 17 6 C17.66 6.66 18.32 7.32 19 8 C20.32 7.34 21.64 6.68 23 6 C23.33 6.66 23.66 7.32 24 8 C22.68 9.65 21.36 11.3 20 13 C14.93830834 11.13908395 10.54327138 8.42911236 5.9375 5.65625 C3.33145051 4.18688167 0.80290517 3.03047984 -2 2 C-1.34 1.34 -0.68 0.68 0 0 Z " fill="#6AA058" transform="translate(142,140)"/>
<path d="M0 0 C3.57542013 2.20611029 5.42602965 4.14791467 7 8 C7.30078125 10.47265625 7.30078125 10.47265625 7.3125 13.0625 C7.32087891 13.49111328 7.32087891 13.49111328 7.36328125 15.66015625 C7 18 7 18 4 21 C4 15.72 4 10.44 4 5 C2.35 5 0.7 5 -1 5 C-1.33 3.68 -1.66 2.36 -2 1 C-3.6065676 1.25620684 -5.2102483 1.53055871 -6.8125 1.8125 C-7.70582031 1.96332031 -8.59914063 2.11414062 -9.51953125 2.26953125 C-12.18321256 3.05395393 -13.25690322 3.88627799 -15 6 C-15.66 5.67 -16.32 5.34 -17 5 C-10.89830872 -0.17317304 -8.08195685 -1.81774116 0 0 Z " fill="#33803C" transform="translate(131,43)"/>
<path d="M0 0 C0.928125 0.165 1.85625 0.33 2.8125 0.5 C4.8125 3.5 4.8125 3.5 4.8125 7.5 C4.1525 7.5 3.4925 7.5 2.8125 7.5 C2.8125 8.82 2.8125 10.14 2.8125 11.5 C1.1625 12.16 -0.4875 12.82 -2.1875 13.5 C-2.001875 12.4275 -1.81625 11.355 -1.625 10.25 C-1.2570432 7.09608454 -1.14284657 5.40181508 -2.1875 2.5 C-2.8475 2.5 -3.5075 2.5 -4.1875 2.5 C-4.1875 3.16 -4.1875 3.82 -4.1875 4.5 C-5.5075 4.83 -6.8275 5.16 -8.1875 5.5 C-4.05288462 0.63574661 -4.05288462 0.63574661 0 0 Z " fill="#4F574F" transform="translate(131.1875,89.5)"/>
<path d="M0 0 C2.82800791 1.29719493 4.9647032 2.71024882 7.25 4.8125 C15.33407864 11.85181424 24.41860967 16.09344318 35 18 C35 18.33 35 18.66 35 19 C30.71 18.67 26.42 18.34 22 18 C22 17.34 22 16.68 22 16 C21.39671875 15.91363281 20.7934375 15.82726562 20.171875 15.73828125 C14.53317949 14.7469622 12.37626022 13.79211128 9 9 C6.95390133 7.39061805 4.85292272 5.90274843 2.70703125 4.4296875 C1 3 1 3 0 0 Z " fill="#7CA96B" transform="translate(49,103)"/>
<path d="M0 0 C1.32 0 2.64 0 4 0 C6.61922824 4.59421082 6.87185621 8.82434449 6 14 C4.57421602 17.17152735 2.97360739 19.17727798 0 21 C-3.45049403 21.72754603 -6.56243557 21.81649551 -10 21 C-11.80078125 19.4609375 -11.80078125 19.4609375 -13 18 C-12.71576172 18.07089844 -12.71576172 18.07089844 -11.27734375 18.4296875 C-7.75814705 19.09945115 -5.1438759 19.58984393 -1.87890625 17.90625 C0.80201685 15.72138128 2.63747058 13.72505884 4.1875 10.625 C3.89933666 6.59071321 2.00019647 3.45956728 0 0 Z " fill="#2D783B" transform="translate(66,47)"/>
<path d="M0 0 C2.4375 0.6875 2.4375 0.6875 5 2 C5.8125 4.625 5.8125 4.625 6 7 C5.34 7 4.68 7 4 7 C3.99291016 7.32613281 3.99291016 7.32613281 3.95703125 8.9765625 C3.60699095 15.39081441 2.61719783 18.50119186 -2 23 C-3.65 22.67 -5.3 22.34 -7 22 C-6.236875 21.4225 -5.47375 20.845 -4.6875 20.25 C0.77419355 15.67741935 0.77419355 15.67741935 1.328125 11.5625 C1.30234375 10.716875 1.2765625 9.87125 1.25 9 C1.23453125 8.154375 1.2190625 7.30875 1.203125 6.4375 C1.01512019 4.18144231 0.62330092 2.17149996 0 0 Z " fill="#72B467" transform="translate(70,47)"/>
<path d="M0 0 C0.515625 0.2475 1.03125 0.495 1.5625 0.75 C0.9025 0.75 0.2425 0.75 -0.4375 0.75 C-0.4375 1.74 -0.4375 2.73 -0.4375 3.75 C-1.406875 3.9975 -2.37625 4.245 -3.375 4.5 C-4.385625 4.9125 -5.39625 5.325 -6.4375 5.75 C-7.3125 7.875 -7.3125 7.875 -7.4375 9.75 C-6.798125 10.03875 -6.15875 10.3275 -5.5 10.625 C-3.4375 11.75 -3.4375 11.75 -2.4375 13.75 C-3.4275 14.08 -4.4175 14.41 -5.4375 14.75 C-8.0775 12.11 -10.7175 9.47 -13.4375 6.75 C-3.90366541 -0.40037594 -3.90366541 -0.40037594 0 0 Z " fill="#2F733B" transform="translate(37.4375,147.25)"/>
<path d="M0 0 C0.33 0.99 0.66 1.98 1 3 C1.78375 3.0825 2.5675 3.165 3.375 3.25 C6 4 6 4 7.3125 6.0625 C7.539375 6.701875 7.76625 7.34125 8 8 C12.51617599 8.07654536 16.59085217 8.10228696 21 7 C19 10 19 10 16 11 C11.3551346 11.61931539 7.36072329 11.79157546 3.5 8.875 C0.78449875 5.75217356 0.18962964 4.07703716 0 0 Z " fill="#2E7739" transform="translate(113,58)"/>
<path d="M0 0 C-0.1875 2.375 -0.1875 2.375 -1 5 C-3.5625 6.3125 -3.5625 6.3125 -6 7 C-5.67 8.65 -5.34 10.3 -5 12 C-8.87533393 8.730187 -8.87533393 8.730187 -9.4375 5.4375 C-9 3 -9 3 -7.875 1.1875 C-5.22464043 -0.49106106 -3.06753576 -0.20450238 0 0 Z " fill="#4D554E" transform="translate(57,90)"/>
<path d="M0 0 C0.99 0.66 1.98 1.32 3 2 C3.66 1.34 4.32 0.68 5 0 C5.66 0.33 6.32 0.66 7 1 C7 1.66 7 2.32 7 3 C6.40832031 3.18175781 5.81664063 3.36351563 5.20703125 3.55078125 C1.64789066 4.68297116 -1.5094496 5.69197998 -4.6875 7.6875 C-7.59853204 9.33970737 -9.70740929 9.22971563 -13 9 C-10.66785852 7.79371992 -8.50357861 6.8345262 -6 6 C-5.938125 5.6803125 -5.938125 5.6803125 -5.625 4.0625 C-5 2 -5 2 -2.625 0.625 C-1.75875 0.41875 -0.8925 0.2125 0 0 Z " fill="#80BA66" transform="translate(108,95)"/>
<path d="M0 0 C6.30162703 0.59449312 6.30162703 0.59449312 8.9375 2.125 C10.65036957 5.14771101 10.35727863 7.60585305 10 11 C8.5 13.4375 8.5 13.4375 7 15 C6.01 14.67 5.02 14.34 4 14 C4.66 13.67 5.32 13.34 6 13 C6 11.68 6 10.36 6 9 C6.66 9 7.32 9 8 9 C7.34 7.02 6.68 5.04 6 3 C3.36 3 0.72 3 -2 3 C-1.34 2.01 -0.68 1.02 0 0 Z " fill="#496142" transform="translate(128,88)"/>
<path d="M0 0 C0.33 0.66 0.66 1.32 1 2 C-0.74857927 5.58918903 -2.5889267 7.90934217 -6 10 C-6.66 10 -7.32 10 -8 10 C-8 10.66 -8 11.32 -8 12 C-8.99 12.33 -9.98 12.66 -11 13 C-11.33 13.66 -11.66 14.32 -12 15 C-14.5625 15.625 -14.5625 15.625 -17 16 C-13.4526332 12.34177798 -9.72300269 8.98336055 -5.87109375 5.6484375 C-3.82596494 3.84667474 -1.88750208 1.966148 0 0 Z " fill="#82B170" transform="translate(137,100)"/>
<path d="M0 0 C-1.59987856 1.31772362 -3.20505966 2.62901137 -4.8125 3.9375 C-5.70582031 4.66839844 -6.59914062 5.39929688 -7.51953125 6.15234375 C-10 8 -10 8 -13 9 C-12.67675501 6.00998387 -12.45193862 4.43579795 -10.25 2.3125 C-4 -1.33333333 -4 -1.33333333 0 0 Z " fill="#285835" transform="translate(153,162)"/>
<path d="M0 0 C0 0.99 0 1.98 0 3 C-1 4 -2 5 -3 6 C-3.474375 6.99 -3.94875 7.98 -4.4375 9 C-6.03696899 12.07098046 -7.20406563 13.10597994 -10 15 C-10.66 15.99 -11.32 16.98 -12 18 C-12.83203125 16.3828125 -12.83203125 16.3828125 -13 14 C-11.29487528 11.75625822 -9.65336619 9.86262854 -7.6875 7.875 C-7.17509766 7.33746094 -6.66269531 6.79992187 -6.13476562 6.24609375 C-4.11726045 4.13652511 -2.06399897 2.06399897 0 0 Z " fill="#6D9659" transform="translate(30,24)"/>
<path d="M0 0 C0.2578125 0.144375 0.2578125 0.144375 1.5625 0.875 C4 2 4 2 7.6875 2.9375 C8.780625 3.288125 9.87375 3.63875 11 4 C11.33 4.99 11.66 5.98 12 7 C12.99 7 13.98 7 15 7 C14.67 7.99 14.34 8.98 14 10 C8.72 7.36 3.44 4.72 -2 2 C-1.34 1.34 -0.68 0.68 0 0 Z " fill="#6AAA62" transform="translate(142,140)"/>
<path d="M0 0 C1.08152344 -0.00128906 2.16304687 -0.00257812 3.27734375 -0.00390625 C4.39238281 -0.00003906 5.50742188 0.00382812 6.65625 0.0078125 C7.21376953 0.00587891 7.21376953 0.00587891 10.03515625 -0.00390625 C10.57591797 -0.00326172 10.57591797 -0.00326172 13.3125 0 C14.29025391 0.00112793 15.26800781 0.00225586 16.27539062 0.00341797 C19.30292036 0.13940024 22.17945438 0.57728374 25.15625 1.1328125 C25.15625 1.4628125 25.15625 1.7928125 25.15625 2.1328125 C23.17625 2.1328125 21.19625 2.1328125 19.15625 2.1328125 C18.82625 2.7928125 18.49625 3.4528125 18.15625 4.1328125 C17.82625 3.4728125 17.49625 2.8128125 17.15625 2.1328125 C7.58625 2.1328125 -1.98375 2.1328125 -11.84375 2.1328125 C-11.84375 1.8028125 -11.84375 1.4728125 -11.84375 1.1328125 C-7.84645749 0.3868389 -4.06444377 0.00468871 0 0 Z " fill="#475E39" transform="translate(85.84375,-0.1328125)"/>
<path d="M0 0 C0.66 0.33 1.32 0.66 2 1 C-1.11243347 5.66865021 -5.80290316 6.30792196 -11 8 C-11.66 7.34 -12.32 6.68 -13 6 C-10.87959258 4.96966118 -8.75352092 3.95097146 -6.625 2.9375 C-5.44164062 2.36902344 -4.25828125 1.80054688 -3.0390625 1.21484375 C-2.03617188 0.81394531 -1.03328125 0.41304687 0 0 Z M-13 8 C-11 9 -11 9 -11 9 Z " fill="#337F40" transform="translate(50,140)"/>
<path d="M0 0 C0.66 0.99 1.32 1.98 2 3 C1.67 3.495 1.67 3.495 0 6 C-0.39013716 7.9896995 -0.73202649 9.99019869 -1 12 C-1.66 12 -2.32 12 -3 12 C-3.66 13.32 -4.32 14.64 -5 16 C-6.39211215 11.82366356 -4.9535579 10.21039485 -3.0625 6.3125 C-2.49660156 5.13300781 -1.93070313 3.95351563 -1.34765625 2.73828125 C-0.90292969 1.83464844 -0.45820313 0.93101563 0 0 Z " fill="#678D53" transform="translate(11,48)"/>
<path d="M0 0 C0.33 0 0.66 0 1 0 C1.0272367 2.52090778 1.04695207 5.04151457 1.0625 7.5625 C1.07087891 8.26697266 1.07925781 8.97144531 1.08789062 9.69726562 C1.10882603 14.24024798 0.74800682 18.51784892 0 23 C-0.33 23 -0.66 23 -1 23 C-1.19393875 20.85473901 -1.37998676 18.70876323 -1.5625 16.5625 C-1.61470703 15.96501953 -1.61470703 15.96501953 -1.87890625 12.94140625 C-1.91886719 11.97074219 -1.95882812 11.00007813 -2 10 C-1.67 9.67 -1.34 9.34 -1 9 C-0.76807135 7.48530552 -0.58784762 5.96245438 -0.4375 4.4375 C-0.35371094 3.61121094 -0.26992187 2.78492187 -0.18359375 1.93359375 C-0.12300781 1.29550781 -0.06242188 0.65742187 0 0 Z " fill="#425C36" transform="translate(184,84)"/>
<path d="M0 0 C0 4.31705532 -2.10519389 6.00455107 -4.91015625 9.125 C-8.04240923 11.93524566 -10.97592383 12.87043476 -15 14 C-13.8005648 10.40169439 -12.89953512 10.05435099 -9.75 8.125 C-5.98129783 5.7207243 -3.00470294 3.29548064 0 0 Z " fill="#506A49" transform="translate(125,90)"/>
<path d="M0 0 C0 0.99 0 1.98 0 3 C-6.95640791 5.81568891 -13.66561007 4.75276679 -21 4 C-21 3.67 -21 3.34 -21 3 C-19.98679687 2.95101562 -18.97359375 2.90203125 -17.9296875 2.8515625 C-16.57810089 2.77647436 -15.22653962 2.70092919 -13.875 2.625 C-13.20984375 2.5940625 -12.5446875 2.563125 -11.859375 2.53125 C-7.60178738 2.28080367 -3.97914217 1.52471803 0 0 Z " fill="#5C7752" transform="translate(109,102)"/>
<path d="M0 0 C-8.75 7 -8.75 7 -14 7 C-13.67 6.01 -13.34 5.02 -13 4 C-11.35 4 -9.7 4 -8 4 C-7.67 3.01 -7.34 2.02 -7 1 C-4.05697101 -0.96201933 -3.48011144 -1.16003715 0 0 Z " fill="#6DAB62" transform="translate(37,146)"/>
<path d="M0 0 C0.6290625 0.020625 0.6290625 0.020625 3.8125 0.125 C3.8125 1.445 3.8125 2.765 3.8125 4.125 C1.82682292 3.79947917 -0.15885417 3.47395833 -2.14453125 3.1484375 C-4.1875 3.125 -4.1875 3.125 -7.1875 5.125 C-7.1875 4.135 -7.1875 3.145 -7.1875 2.125 C-4.09861478 0.06574319 -3.47814073 -0.1140374 0 0 Z " fill="#79A865" transform="translate(55.1875,85.875)"/>
<path d="M0 0 C0.66 0.33 1.32 0.66 2 1 C1.875 2.8125 1.875 2.8125 1 5 C-1.875 6.8125 -1.875 6.8125 -5 8 C-5.99 7.67 -6.98 7.34 -8 7 C-5.36 4.69 -2.72 2.38 0 0 Z " fill="#5D834A" transform="translate(39,16)"/>
<path d="M0 0 C0.99 0 1.98 0 3 0 C3 0.66 3 1.32 3 2 C3.99 2 4.98 2 6 2 C6 2.66 6 3.32 6 4 C6.3196875 4.144375 6.3196875 4.144375 7.9375 4.875 C10 6 10 6 11 8 C10.01 8.33 9.02 8.66 8 9 C6.66368764 7.6905332 5.33102075 6.37734515 4 5.0625 C3.62875 4.69705078 3.62875 4.69705078 1.75 2.84765625 C0 1 0 1 0 0 Z " fill="#2F603C" transform="translate(24,153)"/>
<path d="M0 0 C4.87362847 0.45336079 7.39042389 1.7089159 11 5 C9.234375 5.6484375 9.234375 5.6484375 7 6 C5.078125 5.0390625 5.078125 5.0390625 3.25 3.625 C2.63640625 3.16351563 2.0228125 2.70203125 1.390625 2.2265625 C0.93171875 1.82179687 0.4728125 1.41703125 0 1 C0 0.67 0 0.34 0 0 Z " fill="#295634" transform="translate(37,165)"/>
<path d="M0 0 C0.66 0.33 1.32 0.66 2 1 C1.25 7.75 1.25 7.75 -1 10 C-1.9765625 3.9453125 -1.9765625 3.9453125 -2 2 C-1.34 1.34 -0.68 0.68 0 0 Z " fill="#679051" transform="translate(179,115)"/>
<path d="M0 0 C0.825 0.33 0.825 0.33 5 2 C5.8125 4.625 5.8125 4.625 6 7 C5.34 7 4.68 7 4 7 C3.34 8.32 2.68 9.64 2 11 C1.34 7.37 0.68 3.74 0 0 Z " fill="#6AA961" transform="translate(70,47)"/>
<path d="M0 0 C0.66 0.33 1.32 0.66 2 1 C1.01 2.98 0.02 4.96 -1 7 C-1.33 6.34 -1.66 5.68 -2 5 C-3.65 5 -5.3 5 -7 5 C-4.88437775 2.67281553 -2.94982021 1.14186589 0 0 Z " fill="#5E834A" transform="translate(53,8)"/>
<path d="M0 0 C0 0.66 0 1.32 0 2 C-3.82320557 3.42258812 -6.91281305 4.24042276 -11 4 C-11.33 3.34 -11.66 2.68 -12 2 C-10.56342755 1.66269158 -9.12569907 1.33030409 -7.6875 1 C-6.88699219 0.814375 -6.08648437 0.62875 -5.26171875 0.4375 C-3 0 -3 0 0 0 Z " fill="#75A165" transform="translate(111,119)"/>
<path d="M0 0 C0.66 0 1.32 0 2 0 C2.69965443 1.26418246 3.38434763 2.53665402 4.0625 3.8125 C4.25392578 4.16634766 4.25392578 4.16634766 5.22265625 5.95703125 C6 8 6 8 5 11 C4.34 10.34 3.68 9.68 3 9 C3 7.68 3 6.36 3 5 C1.68 4.34 0.36 3.68 -1 3 C-0.67 2.01 -0.34 1.02 0 0 Z " fill="#699154" transform="translate(172,48)"/>
<path d="M0 0 C1.32 0 2.64 0 4 0 C5.64826111 2.96687001 6.44271087 5.65626525 7 9 C4.03595495 6.19195732 1.55500981 3.81684226 0 0 Z " fill="#5D834B" transform="translate(13,139)"/>
<path d="M0 0 C0 0.66 0 1.32 0 2 C-3.47325181 3.1577506 -6.36067448 3.06866652 -10 3 C-4.37755102 -1.45918367 -4.37755102 -1.45918367 0 0 Z " fill="#77A868" transform="translate(122,116)"/>
<path d="M0 0 C0.99 0 1.98 0 3 0 C3.66 1.65 4.32 3.3 5 5 C4.67 5.165 4.67 5.165 3 6 C2.34 5.67 1.68 5.34 1 5 C1 4.34 1 3.68 1 3 C0.34 3 -0.32 3 -1 3 C-0.67 2.01 -0.34 1.02 0 0 Z " fill="#6DAE5F" transform="translate(110,60)"/>
<path d="M0 0 C0.66 0 1.32 0 2 0 C1.40072174 3.35595828 0.15377564 5.37801226 -2 8 C-2.6875 6.25 -2.6875 6.25 -3 4 C-1.6875 1.75 -1.6875 1.75 0 0 Z " fill="#648C50" transform="translate(20,34)"/>
<path d="M0 0 C1.98 0 3.96 0 6 0 C4.60210322 2.79579355 2.7371003 3.59807058 0 5 C-0.66 4.67 -1.32 4.34 -2 4 C-1.34 2.68 -0.68 1.36 0 0 Z " fill="#83B968" transform="translate(75,2)"/>
</svg>
